#N canvas 512 393 1187 614 12;
#X obj 140 177 netsend -b -u;
#X msg 207 121 connect 192.168.1.69 54321;
#X msg 222 144 disconnect;
#X obj 30 73 oscformat motor1 state;
#X floatatom 42 18 5 0 0 0 - - -;
#X floatatom 215 19 5 0 0 0 - - -;
#X obj 203 74 oscformat motor2 state;
#X obj 291 257 oscformat motor1 speed;
#X floatatom 291 217 5 0 0 0 - - -;
#X obj 622 111 metro 2000;
#X obj 622 136 tgl 25 0 empty empty empty 17 7 0 10 -262144 -1 -1 0
1;
#X obj 620 64 tgl 25 0 empty empty empty 17 7 0 10 -262144 -1 -1 0
1;
#X connect 1 0 0 0;
#X connect 2 0 0 0;
#X connect 3 0 0 0;
#X connect 4 0 3 0;
#X connect 5 0 6 0;
#X connect 6 0 0 0;
#X connect 7 0 0 0;
#X connect 8 0 7 0;
#X connect 9 0 10 0;
#X connect 11 0 9 0;
